<svg xmlns="http://www.w3.org/2000/svg" width="266" height="300" viewBox="0 0 266 300" xmlns:xlink="http://www.w3.org/1999/xlink">
  <defs>
    <polygon id="a" points=".054 299.946 .054 .828 264.964 .828 264.964 299.946"/>
  </defs>
  <g fill="none" fill-rule="evenodd">
    <mask id="b" fill="white">
      <use xlink:href="#a"/>
    </mask>
    <path fill="#E6E6E6" d="M124.671045 186.06C98.5880597 186.06 77.4483582 207.199701 77.4483582 233.275522 77.4483582 259.350448 98.5880597 280.493731 124.671045 280.493731 150.740597 280.493731 171.880299 259.350448 171.880299 233.275522 171.880299 207.199701 150.740597 186.06 124.671045 186.06M183.381493 177.052836C197.371343 191.662388 205.982687 211.455224 205.982687 233.275522 205.982687 260.908657 192.182687 285.308955 171.116418 300 210.055522 287.985672 242.274627 258.717313 256.69791 223.264478 276.641194 174.225672 258.072537 137.311343 226.896716 103.846567 227.845075 108.179104 228.378806 112.670149 228.378806 117.285672 228.378806 145.666567 209.348955 169.592239 183.381493 177.052836M130.060299 117.285672C130.060299 137.233433 146.237015 153.402985 166.182985 153.402985 186.12806 153.402985 202.296716 137.233433 202.296716 117.285672 202.296716 97.3423881 186.12806 81.1737313 166.182985 81.1737313 146.237015 81.1737313 130.060299 97.3423881 130.060299 117.285672" mask="url(#b)"/>
    <path fill="#E6E6E6" d="M62.4689552,285.637612 C50.540597,271.487463 43.3540299,253.227761 43.3540299,233.275522 C43.3540299,191.652537 74.6364179,157.358507 114.966269,152.562985 C108.045672,142.534925 103.981791,130.384478 103.981791,117.285672 C103.981791,82.940597 131.825373,55.0934328 166.182985,55.0934328 C169.019104,55.0934328 171.80597,55.3029851 174.535522,55.6701493 C154.188358,38.1098507 133.88597,20.3014925 117.860597,0.828358209 C126.045672,86.0973134 40.2008955,55.1140299 8.46716418,133.688955 C-12.8292537,186.409254 6.36537313,251.58 62.4689552,285.637612" mask="url(#b)"/>
  </g>
</svg>
